HIERARCHY
ROOT Hips
{
    OFFSET   0.000000   0.000000   0.000000
    CHANNELS 6 Xposition Yposition Zposition Zrotation Xrotation Yrotation
    JOINT Chest
    {
        OFFSET   0.000000   8.007230   0.000000
        CHANNELS 3 Zrotation Xrotation Yrotation
        JOINT Chest2
        {
            OFFSET   0.000000  22.077100   0.000000
            CHANNELS 3 Zrotation Xrotation Yrotation
            JOINT Neck
            {
                OFFSET   0.000000  23.255100   0.000000
                CHANNELS 3 Zrotation Xrotation Yrotation
                JOINT Head
                {
                    OFFSET   0.000000  14.370100   1.956600
                    CHANNELS 3 Zrotation Xrotation Yrotation
                    End Site
                    {
                        OFFSET   0.000000  19.566000   0.000000
                    }
                }
            }
            JOINT LeftCollar
            {
                OFFSET   3.911900  19.017000  -0.467063
                CHANNELS 3 Zrotation Xrotation Yrotation
                JOINT LeftShoulder
                {
                    OFFSET  10.383700   0.000000   0.000000
                    CHANNELS 3 Zrotation Xrotation Yrotation
                    JOINT LeftElbow
                    {
                        OFFSET  26.662100   0.001193   0.000980
                        CHANNELS 3 Zrotation Xrotation Yrotation
                        JOINT LeftWrist
                        {
                            OFFSET  28.869000  -0.000059  -0.000082
                            CHANNELS 3 Zrotation Xrotation Yrotation
                            JOINT LeftFinger0
                            {
                                OFFSET   2.044650  -2.323450   3.252850
                                CHANNELS 3 Zrotation Xrotation Yrotation
                                JOINT LeftFinger01
                                {
                                    OFFSET   3.088130   0.000000   0.000000
                                    CHANNELS 3 Zrotation Xrotation Yrotation
                                    JOINT LeftFinger02
                                    {
                                        OFFSET   2.639460   0.000000   0.000000
                                        CHANNELS 3 Zrotation Xrotation Yrotation
                                        End Site
                                        {
                                            OFFSET   2.582190   0.000000   0.000000
                                        }
                                    }
                                }
                            }
                            JOINT LeftFinger1
                            {
                                OFFSET   8.364480   0.000000   3.252850
                                CHANNELS 3 Zrotation Xrotation Yrotation
                                JOINT LeftFinger11
                                {
                                    OFFSET   4.646930   0.000000   0.000000
                                    CHANNELS 3 Zrotation Xrotation Yrotation
                                    JOINT LeftFinger12
                                    {
                                        OFFSET   2.323470   0.000000   0.000000
                                        CHANNELS 3 Zrotation Xrotation Yrotation
                                        End Site
                                        {
                                            OFFSET   2.273050   0.000000   0.000000
                                        }
                                    }
                                }
                            }
                            JOINT LeftFinger2
                            {
                                OFFSET   8.364490   0.000016   1.078090
                                CHANNELS 3 Zrotation Xrotation Yrotation
                                JOINT LeftFinger21
                                {
                                    OFFSET   5.111610   0.000000   0.000000
                                    CHANNELS 3 Zrotation Xrotation Yrotation
                                    JOINT LeftFinger22
                                    {
                                        OFFSET   2.788150   0.000016   0.000000
                                        CHANNELS 3 Zrotation Xrotation Yrotation
                                        End Site
                                        {
                                            OFFSET   2.727660   0.000000   0.000000
                                        }
                                    }
                                }
                            }
                            JOINT LeftFinger3
                            {
                                OFFSET   7.899780   0.000015  -1.078090
                                CHANNELS 3 Zrotation Xrotation Yrotation
                                JOINT LeftFinger31
                                {
                                    OFFSET   4.646930   0.000000   0.000000
                                    CHANNELS 3 Zrotation Xrotation Yrotation
                                    JOINT LeftFinger32
                                    {
                                        OFFSET   2.323470   0.000000   0.000000
                                        CHANNELS 3 Zrotation Xrotation Yrotation
                                        End Site
                                        {
                                            OFFSET   2.273050   0.000000   0.000000
                                        }
                                    }
                                }
                            }
                            JOINT LeftFinger4
                            {
                                OFFSET   7.435090   0.000000  -3.252850
                                CHANNELS 3 Zrotation Xrotation Yrotation
                                JOINT LeftFinger41
                                {
                                    OFFSET   3.717550   0.000000   0.000000
                                    CHANNELS 3 Zrotation Xrotation Yrotation
                                    JOINT LeftFinger42
                                    {
                                        OFFSET   1.858770   0.000000   0.000000
                                        CHANNELS 3 Zrotation Xrotation Yrotation
                                        End Site
                                        {
                                            OFFSET   1.818440   0.000000   0.000000
                                        }
                                    }
                                }
                            }
                        }
                    }
                }
            }
            JOINT RightCollar
            {
                OFFSET  -3.911910  19.017000  -0.467062
                CHANNELS 3 Zrotation Xrotation Yrotation
                JOINT RightShoulder
                {
                    OFFSET -10.383700   0.000014   0.000000
                    CHANNELS 3 Zrotation Xrotation Yrotation
                    JOINT RightElbow
                    {
                        OFFSET -26.662100   0.001225   0.001091
                        CHANNELS 3 Zrotation Xrotation Yrotation
                        JOINT RightWrist
                        {
                            OFFSET -28.869000  -0.000020  -0.000085
                            CHANNELS 3 Zrotation Xrotation Yrotation
                            JOINT RightFinger0
                            {
                                OFFSET  -2.044650  -2.323490   3.252850
                                CHANNELS 3 Zrotation Xrotation Yrotation
                                JOINT RightFinger01
                                {
                                    OFFSET  -3.088130   0.000000   0.000000
                                    CHANNELS 3 Zrotation Xrotation Yrotation
                                    JOINT RightFinger02
                                    {
                                        OFFSET  -2.639460   0.000000   0.000000
                                        CHANNELS 3 Zrotation Xrotation Yrotation
                                        End Site
                                        {
                                            OFFSET  -2.582190   0.000000   0.000000
                                        }
                                    }
                                }
                            }
                            JOINT RightFinger1
                            {
                                OFFSET  -8.364480   0.000000   3.252850
                                CHANNELS 3 Zrotation Xrotation Yrotation
                                JOINT RightFinger11
                                {
                                    OFFSET  -4.646930   0.000000   0.000000
                                    CHANNELS 3 Zrotation Xrotation Yrotation
                                    JOINT RightFinger12
                                    {
                                        OFFSET  -2.323470   0.000000   0.000000
                                        CHANNELS 3 Zrotation Xrotation Yrotation
                                        End Site
                                        {
                                            OFFSET  -2.273050   0.000000   0.000000
                                        }
                                    }
                                }
                            }
                            JOINT RightFinger2
                            {
                                OFFSET  -8.364480   0.000000   1.078090
                                CHANNELS 3 Zrotation Xrotation Yrotation
                                JOINT RightFinger21
                                {
                                    OFFSET  -5.111620   0.000000   0.000000
                                    CHANNELS 3 Zrotation Xrotation Yrotation
                                    JOINT RightFinger22
                                    {
                                        OFFSET  -2.788160   0.000000   0.000000
                                        CHANNELS 3 Zrotation Xrotation Yrotation
                                        End Site
                                        {
                                            OFFSET  -2.727660   0.000000   0.000000
                                        }
                                    }
                                }
                            }
                            JOINT RightFinger3
                            {
                                OFFSET  -7.899780   0.000000  -1.078090
                                CHANNELS 3 Zrotation Xrotation Yrotation
                                JOINT RightFinger31
                                {
                                    OFFSET  -4.646930   0.000000   0.000000
                                    CHANNELS 3 Zrotation Xrotation Yrotation
                                    JOINT RightFinger32
                                    {
                                        OFFSET  -2.323470   0.000000   0.000000
                                        CHANNELS 3 Zrotation Xrotation Yrotation
                                        End Site
                                        {
                                            OFFSET  -2.273050   0.000000   0.000000
                                        }
                                    }
                                }
                            }
                            JOINT RightFinger4
                            {
                                OFFSET  -7.435090   0.000000  -3.252850
                                CHANNELS 3 Zrotation Xrotation Yrotation
                                JOINT RightFinger41
                                {
                                    OFFSET  -3.717550   0.000000   0.000000
                                    CHANNELS 3 Zrotation Xrotation Yrotation
                                    JOINT RightFinger42
                                    {
                                        OFFSET  -1.858760   0.000000   0.000000
                                        CHANNELS 3 Zrotation Xrotation Yrotation
                                        End Site
                                        {
                                            OFFSET  -1.818440   0.000000   0.000000
                                        }
                                    }
                                }
                            }
                        }
                    }
                }
            }
        }
    }
    JOINT LeftHip
    {
        OFFSET   9.783030   0.000000   0.000000
        CHANNELS 3 Zrotation Xrotation Yrotation
        JOINT LeftKnee
        {
            OFFSET   0.000063 -41.789100   0.000608
            CHANNELS 3 Zrotation Xrotation Yrotation
            JOINT LeftAnkle
            {
                OFFSET   0.000048 -41.133200  -0.000184
                CHANNELS 3 Zrotation Xrotation Yrotation
                JOINT LeftToe
                {
                    OFFSET   0.000000  -6.358960  14.674500
                    CHANNELS 3 Zrotation Xrotation Yrotation
                    End Site
                    {
                        OFFSET   0.000000   0.000000   3.913200
                    }
                }
            }
        }
    }
    JOINT RightHip
    {
        OFFSET  -9.783030   0.000000   0.000000
        CHANNELS 3 Zrotation Xrotation Yrotation
        JOINT RightKnee
        {
            OFFSET   0.000071 -41.789100   0.001239
            CHANNELS 3 Zrotation Xrotation Yrotation
            JOINT RightAnkle
            {
                OFFSET   0.000037 -41.133200  -0.000166
                CHANNELS 3 Zrotation Xrotation Yrotation
                JOINT RightToe
                {
                    OFFSET   0.000000  -6.358960  14.674500
                    CHANNELS 3 Zrotation Xrotation Yrotation
                    End Site
                    {
                        OFFSET   0.000000   0.000000   3.913200
                    }
                }
            }
        }
    }
}
MOTION
Frames: 6
Frame Time:   0.016667
  0.741856  89.573800   1.327200  -4.312350  -8.992220  -6.503640   0.887166   5.062470  -0.049865   1.789310  10.123500  -0.179861   7.151640   2.335240  -0.290176  11.800200   4.515370  -4.362570  -2.127010   1.044320   0.394620 -75.903200  19.163100  -2.274610  -0.729431  -4.284030 -19.232400  15.283800 -14.143100   6.636930  41.535000  36.773200 -69.850600 -30.452800   0.015731   0.009286 -10.226400   0.004070  -0.025812 -31.255600   4.123690  -6.756740 -25.772100   0.005231   0.000547 -18.040500   0.004659  -0.056476 -28.762500  -1.401810   2.551650 -42.358800   0.002492   0.002026 -28.210900   0.004462   0.003276 -28.764800  -1.401700   2.551700 -42.149000   0.003955   0.003652 -28.071200   0.003442   0.004774 -33.388400  -1.602990   2.430360 -50.133600  -0.004592   0.001957 -33.389000   0.003090   0.006677   8.495960   1.881940   4.234180  69.759300  -8.439940   3.074290 -45.019600 -22.439700  42.417400  -8.247440  27.886400   6.540620 -59.067600  53.995900 108.309000  -0.651552  -0.415211  -0.152685  -5.325660  -0.203118  -0.093237  13.275400   6.280740  24.905300  11.990700  -0.006209   0.014645   8.393490  -0.002739   0.010871  11.836800   3.577610  16.438000  12.350700  -0.002048   0.015406   8.225590   0.000513   0.010650   8.716350   2.326640  16.609900   9.208160  -0.057240   0.008164   6.132620  -0.037335   0.008264  16.696300   0.668904   2.968630  25.009100  -0.004546   0.029943  16.656100   0.003280   0.019529   3.713220  12.908700   3.999630   0.607324   0.079894   9.493010  -1.820720  -4.567920   3.219820  -0.000000   0.000000   0.000000   3.363480  10.565600  -5.581570  -0.433140   1.311140  -5.553680   0.556460  -3.361130   5.612400  -0.000000   0.000000  -0.000000
  0.723498  89.582500   1.336620  -4.325040  -8.979290  -6.555430   0.867572   5.061780  -0.025165   1.748080  10.123200  -0.128726   7.170870   2.319250  -0.289811  11.833100   4.483260  -4.409350  -2.119080   1.032570   0.252018 -75.840700  19.187200  -2.288670  -0.731902  -4.333330 -19.210300  15.248100 -14.132900   6.629300  41.545600  36.785500 -69.863500 -30.451000   0.018454   0.010880 -10.225500   0.004241  -0.030443 -31.247700   4.124980  -6.760890 -25.765700   0.005231   0.000599 -18.036100   0.004659  -0.015833 -28.762500  -1.400670   2.549580 -42.337500   0.002516   0.002061 -28.196700   0.004408   0.003276 -28.764900  -1.400570   2.549630 -42.129300   0.003954   0.003735 -28.058100   0.003444   0.004776 -33.379600  -1.601480   2.428490 -50.120300  -0.004689   0.002177 -33.380100   0.003090   0.006677   8.556630   1.816830   4.262660  68.665100  -8.055860   2.761140 -45.402800 -20.732400  43.515700   4.040660  29.587000  -0.724620 -55.227500  52.670400 104.271000   5.091190  -0.234204  -0.121327  -2.454360  -0.115236  -0.069441  13.081300   6.185840  24.794900  11.801400   0.000450   0.019261   8.260990   0.002141   0.009372   9.973730   3.065110  16.662200  10.415800  -0.001515   0.013502   6.936940   0.000517   0.008857   7.575250   1.723770  13.875800   6.656140  -0.056099   0.007105   4.453430  -0.036640   0.009535  16.573900   0.000321   0.553554  24.793900  -0.012368   0.007313  16.512700  -0.006082   0.008094   3.716220  12.919400   3.999590   0.608568   0.050690   9.516730  -1.815830  -4.566240   3.246750  -0.000000   0.000000  -0.000000   3.367670  10.548700  -5.578960  -0.432911   1.308480  -5.545610   0.557161  -3.344750   5.660060   0.000000   0.000000   0.000000
  0.701877  89.586600   1.346490  -4.339240  -8.973980  -6.605030   0.845399   5.061680   0.026008   1.698490  10.123200  -0.023469   7.197040   2.286250  -0.288656  11.872900   4.417550  -4.517370  -2.113640   1.012070   0.062863 -75.749500  19.260600  -2.340030  -0.740314  -4.429650 -19.171100  15.209800 -14.108000   6.617850  41.562300  36.798100 -69.876200 -30.438800   0.020025   0.011805 -10.219400   0.004406  -0.035075 -31.225000   4.131120  -6.776840 -25.747900   0.005231   0.000648 -18.023600   0.004660   0.001658 -28.763100  -1.392710   2.535110 -42.291000   0.002539   0.002092 -28.165700   0.004355   0.003276 -28.765500  -1.392610   2.535170 -42.091800   0.003954   0.003819 -28.033100   0.003445   0.004777 -33.359100  -1.591350   2.415410 -50.089000  -0.004985   0.002435 -33.359300   0.003090   0.006676   8.630110   1.723190   4.272330  67.605800  -7.246840   2.487790 -45.589800 -19.315700  44.395200  15.182600  29.529700  -8.626890 -50.464800  50.215900  98.650500   9.232120  -0.034470  -0.070701  -0.383934  -0.017628  -0.033918  12.597500   5.945490  24.677500  11.368800   0.009742   0.019920   7.958170   0.008323   0.006473   7.852580   2.456760  16.920600   8.220740  -0.000400   0.010074   5.475020   0.000550   0.006308   5.842880   1.075990   9.832680   3.877270  -0.048112   0.006046   2.582260  -0.031774   0.009716  16.402000  -0.506855  -1.667000  24.578600  -0.020189  -0.017233  16.369300  -0.015443  -0.007713   3.720200  12.935100   3.998380   0.608501   0.031441   9.542110  -1.811080  -4.564570   3.271820   0.000000   0.000000   0.000000   3.374380  10.542600  -5.576990  -0.432678   1.304200  -5.544450   0.558033  -3.329570   5.709190  -0.000000   0.000000   0.000000
  0.679404  89.585100   1.357720  -4.357690  -8.980490  -6.655430   0.824464   5.072200   0.090321   1.650650  10.145000   0.107624   7.221310   2.246290  -0.284840  11.911800   4.338850  -4.672120  -2.111590   0.992955  -0.106760 -75.636000  19.402100  -2.442860  -0.733559  -4.548300 -19.124200  15.203300 -14.059600   6.610210  41.587800  36.787200 -69.853100 -30.401200   0.019158   0.011270 -10.200600   0.004575  -0.032451 -31.182300   4.145610  -6.811760 -25.714600   0.005229   0.000700 -18.000300   0.004661  -0.011909 -28.765000  -1.370220   2.494210 -42.211600   0.002562   0.002118 -28.112800   0.004304   0.003277 -28.767400  -1.370140   2.494270 -42.040400   0.003953   0.003908 -27.998900   0.003444   0.004776 -33.321000  -1.564090   2.377520 -50.030500  -0.006747   0.002734 -33.320400   0.003091   0.006675   8.709710   1.649670   4.289880  66.711400  -6.031780   2.311630 -45.731200 -18.514900  44.667800  24.111100  27.786500 -15.262600 -48.620200  48.053400  94.704400   9.131610  -0.013407  -0.024976  -0.434190  -0.006657  -0.010802  10.648800   5.062940  25.097600   9.644910   0.013615   0.015609   6.751470   0.009841   0.002669   5.075320   1.617220  17.683500   5.334200   0.001390   0.006397   3.552580   0.000700   0.005399   2.573910   0.400357   7.309180   1.363130  -0.017885   0.006857   0.723798  -0.011999   0.009083  14.807800  -0.814647  -3.373340  22.251700   0.002293  -0.019469  14.819600  -0.001678  -0.013766   3.730300  12.942800   3.993870   0.608107   0.049905   9.567250  -1.808780  -4.580720   3.298160  -0.000000   0.000000  -0.000000   3.389260  10.549700  -5.575050  -0.436226   1.300500  -5.544970   0.559133  -3.317190   5.757850  -0.000000   0.000000   0.000000
  0.658204  89.580800   1.364310  -4.375510  -8.993440  -6.695680   0.805513   5.090520   0.161925   1.606090  10.182800   0.253163   7.241590   2.199080  -0.279359  11.942800   4.246440  -4.852460  -2.114160   0.974268  -0.251223 -75.517200  19.558800  -2.573580  -0.711398  -4.660200 -19.095600  15.204400 -14.025800   6.606380  41.608400  36.757100 -69.791800 -30.354000   0.016455   0.009654 -10.177000   0.004719  -0.027204 -31.137500   4.162480  -6.851140 -25.680000   0.005226   0.000749 -17.976000   0.004663  -0.025477 -28.767100  -1.344790   2.447940 -42.157300   0.002584   0.002139 -28.076700   0.004254   0.003278 -28.769500  -1.344710   2.447980 -42.006800   0.003953   0.003998 -27.976500   0.003444   0.004775 -33.295500  -1.534030   2.334080 -49.990000  -0.008215   0.003006 -33.293400   0.003092   0.006674   8.791400   1.610100   4.314640  66.058300  -4.822010   2.216390 -45.618600 -18.230900  44.657300  28.198200  25.771500 -18.775400 -49.326900  46.571800  92.629600   8.688290  -0.009500   0.001479  -0.655843  -0.004660   0.000585   8.199790   3.990670  25.952100   7.471350   0.014855   0.008643   5.229990   0.010058  -0.000331   2.576630   0.849241  18.553700   2.718420   0.002599   0.003211   1.810470   0.000821   0.004601  -0.758971  -0.186945   6.099190  -0.000001   0.005496   0.007696  -0.327190   0.003605   0.007868  12.412700  -0.923155  -4.185440  18.675000   0.024775  -0.019788  12.437600   0.013566  -0.015447   3.742120  12.948900   3.987340   0.607362   0.077935   9.588280  -1.807040  -4.603060   3.320090   0.000000   0.000000   0.000000   3.405530  10.561100  -5.574120  -0.442447   1.298390  -5.545500   0.559474  -3.306810   5.790400   0.000000   0.000000   0.000000
  0.638722  89.573700   1.364000  -4.389460  -9.009160  -6.712600   0.789534   5.109610   0.234874   1.568350  10.221900   0.401111   7.252180   2.145450  -0.273042  11.956700   4.141910  -5.043210  -2.122810   0.955698  -0.344253 -75.403300  19.701000  -2.720210  -0.662313  -4.726970 -19.104100  15.266500 -14.029800   6.613030  41.583400  36.666500 -69.690200 -30.305700   0.009979   0.005868 -10.152900   0.004816  -0.019333 -31.105800   4.179360  -6.887120 -25.656000   0.005221   0.000792 -17.959200   0.004667  -0.019021 -28.768700  -1.324770   2.411500 -42.157300   0.002605   0.002159 -28.076700   0.004201   0.003277 -28.771200  -1.324710   2.411530 -42.026100   0.003952   0.004110 -27.989400   0.003444   0.004776 -33.298700  -1.511330   2.299300 -49.992300  -0.007857   0.003188 -33.294900   0.003092   0.006674   8.874720   1.613050   4.352980  65.788900  -4.023340   2.184460 -45.343100 -18.299300  44.513700  28.229100  25.170200 -18.993400 -52.090400  46.408600  92.542900   7.613010  -0.008453   0.001409  -1.193490  -0.004158   0.000574   5.759570   2.937900  27.121200   5.297680   0.012144   0.004648   3.708390   0.008404  -0.000728   1.198710   0.422017  19.403000   1.269860   0.002227   0.002519   0.845720   0.000718   0.003846  -3.028260  -0.578768   7.713250  -0.000001   0.005161   0.007729  -0.213724   0.003413   0.007226   9.826630  -0.677292  -3.437880  14.777400   0.024535  -0.008742   9.841740   0.015290  -0.008251   3.753230  12.957300   3.980750   0.606488   0.093849   9.600290  -1.806720  -4.610090   3.332370   0.000000   0.000000  -0.000000   3.421690  10.571500  -5.584580  -0.450835   1.299530  -5.528700   0.558376  -3.296950   5.797540   0.000000   0.000000   0.000000
